<?xml version="1.0" encoding="UTF-8" standalone="no"?>
<!DOCTYPE svg PUBLIC "-//W3C//DTD SVG 1.1//EN"
 "http://www.w3.org/Graphics/SVG/1.1/DTD/svg11.dtd">
<!-- Generated by graphviz version 2.47.0 (20210316.0004)
 -->
<!-- Title: dependencies Pages: 1 -->
<svg width="1141pt" height="211pt"
 viewBox="0.00 0.00 1141.00 211.00" xmlns="http://www.w3.org/2000/svg" xmlns:xlink="http://www.w3.org/1999/xlink">
<g id="graph0" class="graph" transform="scale(1 1) rotate(0) translate(4 207)">
<title>dependencies</title>
<polygon fill="white" stroke="transparent" points="-4,4 -4,-207 1137,-207 1137,4 -4,4"/>
<text text-anchor="start" x="545.51" y="-42.4" font-family="Times-12" font-weight="bold" font-size="14.00">Legend</text>
<polygon fill="#ffffb3" stroke="transparent" points="332.5,-10 332.5,-30 352.5,-30 352.5,-10 332.5,-10"/>
<text text-anchor="start" x="356.13" y="-15.4" font-family="Times-12" font-size="14.00"> &#160;Declarations</text>
<polygon fill="#8dd3c7" stroke="transparent" points="445.5,-10 445.5,-30 465.5,-30 465.5,-10 445.5,-10"/>
<text text-anchor="start" x="469.23" y="-15.4" font-family="Times-12" font-size="14.00"> &#160;Module</text>
<polygon fill="#80b1d3" stroke="transparent" points="531.5,-10 531.5,-30 551.5,-30 551.5,-10 531.5,-10"/>
<text text-anchor="start" x="555.28" y="-15.4" font-family="Times-12" font-size="14.00"> &#160;Bootstrap</text>
<polygon fill="#fdb462" stroke="transparent" points="628.5,-10 628.5,-30 648.5,-30 648.5,-10 628.5,-10"/>
<text text-anchor="start" x="652.17" y="-15.4" font-family="Times-12" font-size="14.00"> &#160;Providers</text>
<polygon fill="#fb8072" stroke="transparent" points="724.5,-10 724.5,-30 744.5,-30 744.5,-10 724.5,-10"/>
<text text-anchor="start" x="748.23" y="-15.4" font-family="Times-12" font-size="14.00"> &#160;Exports</text>
<g id="clust1" class="cluster">
<title>cluster_AppModule</title>
<polygon fill="none" stroke="black" stroke-dasharray="1,5" points="8,-70 8,-195 1125,-195 1125,-70 8,-70"/>
</g>
<g id="clust3" class="cluster">
<title>cluster_AppModule_imports</title>
<polygon fill="none" stroke="black" points="16,-78 16,-130 1117,-130 1117,-78 16,-78"/>
</g>
<!-- AdminModule -->
<g id="node1" class="node">
<title>AdminModule</title>
<polygon fill="#8dd3c7" stroke="black" points="1109.44,-122 1106.44,-126 1085.44,-126 1082.44,-122 1010.56,-122 1010.56,-86 1109.44,-86 1109.44,-122"/>
<text text-anchor="middle" x="1060" y="-99.8" font-family="Times,serif" font-size="14.00">AdminModule</text>
</g>
<!-- AppModule -->
<g id="node10" class="node">
<title>AppModule</title>
<polygon fill="#8dd3c7" stroke="black" points="632.66,-187 629.66,-191 608.66,-191 605.66,-187 549.34,-187 549.34,-151 632.66,-151 632.66,-187"/>
<text text-anchor="middle" x="591" y="-164.8" font-family="Times,serif" font-size="14.00">AppModule</text>
</g>
<!-- AdminModule&#45;&gt;AppModule -->
<g id="edge1" class="edge">
<title>AdminModule&#45;&gt;AppModule</title>
<path fill="none" stroke="black" d="M1060,-122.01C1060,-144.49 1060,-180 1060,-180 1060,-180 643.03,-180 643.03,-180"/>
<polygon fill="black" stroke="black" points="643.03,-176.5 633.03,-180 643.03,-183.5 643.03,-176.5"/>
</g>
<!-- CartModule -->
<g id="node2" class="node">
<title>CartModule</title>
<polygon fill="#8dd3c7" stroke="black" points="992.65,-122 989.65,-126 968.65,-126 965.65,-122 909.35,-122 909.35,-86 992.65,-86 992.65,-122"/>
<text text-anchor="middle" x="951" y="-99.8" font-family="Times,serif" font-size="14.00">CartModule</text>
</g>
<!-- CartModule&#45;&gt;AppModule -->
<g id="edge2" class="edge">
<title>CartModule&#45;&gt;AppModule</title>
<path fill="none" stroke="black" d="M951,-122.13C951,-142.57 951,-173 951,-173 951,-173 643,-173 643,-173"/>
<polygon fill="black" stroke="black" points="643,-169.5 633,-173 643,-176.5 643,-169.5"/>
</g>
<!-- CategoryModule -->
<g id="node3" class="node">
<title>CategoryModule</title>
<polygon fill="#8dd3c7" stroke="black" points="891.37,-122 888.37,-126 867.37,-126 864.37,-122 780.63,-122 780.63,-86 891.37,-86 891.37,-122"/>
<text text-anchor="middle" x="836" y="-99.8" font-family="Times,serif" font-size="14.00">CategoryModule</text>
</g>
<!-- CategoryModule&#45;&gt;AppModule -->
<g id="edge3" class="edge">
<title>CategoryModule&#45;&gt;AppModule</title>
<path fill="none" stroke="black" d="M836,-122.27C836,-140.56 836,-166 836,-166 836,-166 642.84,-166 642.84,-166"/>
<polygon fill="black" stroke="black" points="642.84,-162.5 632.84,-166 642.84,-169.5 642.84,-162.5"/>
</g>
<!-- CourseModule -->
<g id="node4" class="node">
<title>CourseModule</title>
<polygon fill="#8dd3c7" stroke="black" points="762.71,-122 759.71,-126 738.71,-126 735.71,-122 663.29,-122 663.29,-86 762.71,-86 762.71,-122"/>
<text text-anchor="middle" x="713" y="-99.8" font-family="Times,serif" font-size="14.00">CourseModule</text>
</g>
<!-- CourseModule&#45;&gt;AppModule -->
<g id="edge4" class="edge">
<title>CourseModule&#45;&gt;AppModule</title>
<path fill="none" stroke="black" d="M713,-122.01C713,-138.05 713,-159 713,-159 713,-159 642.99,-159 642.99,-159"/>
<polygon fill="black" stroke="black" points="642.99,-155.5 632.99,-159 642.99,-162.5 642.99,-155.5"/>
</g>
<!-- PaymentModule -->
<g id="node5" class="node">
<title>PaymentModule</title>
<polygon fill="#8dd3c7" stroke="black" points="645.04,-122 642.04,-126 621.04,-126 618.04,-122 536.96,-122 536.96,-86 645.04,-86 645.04,-122"/>
<text text-anchor="middle" x="591" y="-99.8" font-family="Times,serif" font-size="14.00">PaymentModule</text>
</g>
<!-- PaymentModule&#45;&gt;AppModule -->
<g id="edge5" class="edge">
<title>PaymentModule&#45;&gt;AppModule</title>
<path fill="none" stroke="black" d="M591,-122.11C591,-122.11 591,-140.99 591,-140.99"/>
<polygon fill="black" stroke="black" points="587.5,-140.99 591,-150.99 594.5,-140.99 587.5,-140.99"/>
</g>
<!-- ProfessionModule -->
<g id="node6" class="node">
<title>ProfessionModule</title>
<polygon fill="#8dd3c7" stroke="black" points="518.15,-122 515.15,-126 494.15,-126 491.15,-122 399.85,-122 399.85,-86 518.15,-86 518.15,-122"/>
<text text-anchor="middle" x="459" y="-99.8" font-family="Times,serif" font-size="14.00">ProfessionModule</text>
</g>
<!-- ProfessionModule&#45;&gt;AppModule -->
<g id="edge6" class="edge">
<title>ProfessionModule&#45;&gt;AppModule</title>
<path fill="none" stroke="black" d="M459,-122.01C459,-138.05 459,-159 459,-159 459,-159 539.23,-159 539.23,-159"/>
<polygon fill="black" stroke="black" points="539.23,-162.5 549.23,-159 539.23,-155.5 539.23,-162.5"/>
</g>
<!-- SearchModule -->
<g id="node7" class="node">
<title>SearchModule</title>
<polygon fill="#8dd3c7" stroke="black" points="381.64,-122 378.64,-126 357.64,-126 354.64,-122 284.36,-122 284.36,-86 381.64,-86 381.64,-122"/>
<text text-anchor="middle" x="333" y="-99.8" font-family="Times,serif" font-size="14.00">SearchModule</text>
</g>
<!-- SearchModule&#45;&gt;AppModule -->
<g id="edge7" class="edge">
<title>SearchModule&#45;&gt;AppModule</title>
<path fill="none" stroke="black" d="M333,-122.27C333,-140.56 333,-166 333,-166 333,-166 539.26,-166 539.26,-166"/>
<polygon fill="black" stroke="black" points="539.26,-169.5 549.26,-166 539.26,-162.5 539.26,-169.5"/>
</g>
<!-- SpecializationModule -->
<g id="node8" class="node">
<title>SpecializationModule</title>
<polygon fill="#8dd3c7" stroke="black" points="266.36,-122 263.36,-126 242.36,-126 239.36,-122 127.64,-122 127.64,-86 266.36,-86 266.36,-122"/>
<text text-anchor="middle" x="197" y="-99.8" font-family="Times,serif" font-size="14.00">SpecializationModule</text>
</g>
<!-- SpecializationModule&#45;&gt;AppModule -->
<g id="edge8" class="edge">
<title>SpecializationModule&#45;&gt;AppModule</title>
<path fill="none" stroke="black" d="M197,-122.13C197,-142.57 197,-173 197,-173 197,-173 539.21,-173 539.21,-173"/>
<polygon fill="black" stroke="black" points="539.21,-176.5 549.21,-173 539.21,-169.5 539.21,-176.5"/>
</g>
<!-- UserModule -->
<g id="node9" class="node">
<title>UserModule</title>
<polygon fill="#8dd3c7" stroke="black" points="109.98,-122 106.98,-126 85.98,-126 82.98,-122 24.02,-122 24.02,-86 109.98,-86 109.98,-122"/>
<text text-anchor="middle" x="67" y="-99.8" font-family="Times,serif" font-size="14.00">UserModule</text>
</g>
<!-- UserModule&#45;&gt;AppModule -->
<g id="edge9" class="edge">
<title>UserModule&#45;&gt;AppModule</title>
<path fill="none" stroke="black" d="M67,-122.01C67,-144.49 67,-180 67,-180 67,-180 539,-180 539,-180"/>
<polygon fill="black" stroke="black" points="539,-183.5 549,-180 539,-176.5 539,-183.5"/>
</g>
</g>
</svg>
